<mxfile host="app.diagrams.net" agent="Mozilla/5.0 (Macintosh; Intel Mac OS X 10_15_7) AppleWebKit/537.36 (KHTML, like Gecko) Chrome/133.0.0.0 Safari/537.36" version="26.0.16">
  <diagram id="prtHgNgQTEPvFCAcTncT" name="Page-1">
    <mxGraphModel dx="1242" dy="1894" grid="1" gridSize="10" guides="1" tooltips="1" connect="1" arrows="1" fold="1" page="1" pageScale="1" pageWidth="827" pageHeight="1169" math="0" shadow="0">
      <root>
        <mxCell id="0" />
        <mxCell id="1" parent="0" />
        <mxCell id="dNxyNK7c78bLwvsdeMH5-19" value="Web" style="swimlane;html=1;childLayout=stackLayout;resizeParent=1;resizeParentMax=0;horizontal=0;startSize=20;horizontalStack=0;" parent="1" vertex="1">
          <mxGeometry x="70" y="-210" width="890" height="660" as="geometry" />
        </mxCell>
        <mxCell id="dNxyNK7c78bLwvsdeMH5-20" value="User" style="swimlane;html=1;startSize=20;horizontal=0;" parent="dNxyNK7c78bLwvsdeMH5-19" vertex="1">
          <mxGeometry x="20" width="870" height="80" as="geometry" />
        </mxCell>
        <mxCell id="PtO5hJ0NtHRoKQcWfarQ-48" value="" style="edgeStyle=orthogonalEdgeStyle;rounded=0;orthogonalLoop=1;jettySize=auto;html=1;" edge="1" parent="dNxyNK7c78bLwvsdeMH5-20" source="PtO5hJ0NtHRoKQcWfarQ-47">
          <mxGeometry relative="1" as="geometry">
            <mxPoint x="194" y="60" as="targetPoint" />
          </mxGeometry>
        </mxCell>
        <mxCell id="PtO5hJ0NtHRoKQcWfarQ-49" value="" style="edgeStyle=orthogonalEdgeStyle;rounded=0;orthogonalLoop=1;jettySize=auto;html=1;" edge="1" parent="dNxyNK7c78bLwvsdeMH5-20" target="PtO5hJ0NtHRoKQcWfarQ-44">
          <mxGeometry relative="1" as="geometry">
            <mxPoint x="90" y="100" as="sourcePoint" />
          </mxGeometry>
        </mxCell>
        <mxCell id="PtO5hJ0NtHRoKQcWfarQ-120" value="Engages with web browser" style="rounded=0;whiteSpace=wrap;html=1;" vertex="1" parent="dNxyNK7c78bLwvsdeMH5-20">
          <mxGeometry x="224" y="10" width="256" height="60" as="geometry" />
        </mxCell>
        <mxCell id="dNxyNK7c78bLwvsdeMH5-21" value="Front-End Layer" style="swimlane;html=1;startSize=20;horizontal=0;" parent="dNxyNK7c78bLwvsdeMH5-19" vertex="1">
          <mxGeometry x="20" y="80" width="870" height="170" as="geometry">
            <mxRectangle x="20" y="120" width="500" height="30" as="alternateBounds" />
          </mxGeometry>
        </mxCell>
        <mxCell id="PtO5hJ0NtHRoKQcWfarQ-30" value="Next.JS (React Components,Tailwind CSS)" style="rounded=0;whiteSpace=wrap;html=1;" vertex="1" parent="dNxyNK7c78bLwvsdeMH5-21">
          <mxGeometry x="50" y="40" width="120" height="60" as="geometry" />
        </mxCell>
        <mxCell id="PtO5hJ0NtHRoKQcWfarQ-38" value="CDN static assets (images,JS CSS) - Host by PythonAnywhere?" style="rounded=0;whiteSpace=wrap;html=1;" vertex="1" parent="dNxyNK7c78bLwvsdeMH5-21">
          <mxGeometry x="214" y="40" width="120" height="60" as="geometry" />
        </mxCell>
        <mxCell id="dNxyNK7c78bLwvsdeMH5-22" value="Backend" style="swimlane;html=1;startSize=20;horizontal=0;" parent="dNxyNK7c78bLwvsdeMH5-19" vertex="1">
          <mxGeometry x="20" y="250" width="870" height="150" as="geometry" />
        </mxCell>
        <mxCell id="PtO5hJ0NtHRoKQcWfarQ-129" value="" style="edgeStyle=orthogonalEdgeStyle;rounded=0;orthogonalLoop=1;jettySize=auto;html=1;" edge="1" parent="dNxyNK7c78bLwvsdeMH5-22" source="PtO5hJ0NtHRoKQcWfarQ-65" target="PtO5hJ0NtHRoKQcWfarQ-66">
          <mxGeometry relative="1" as="geometry" />
        </mxCell>
        <mxCell id="PtO5hJ0NtHRoKQcWfarQ-65" value="emails/notifications" style="rounded=0;whiteSpace=wrap;html=1;" vertex="1" parent="dNxyNK7c78bLwvsdeMH5-22">
          <mxGeometry x="204" y="30" width="120" height="60" as="geometry" />
        </mxCell>
        <mxCell id="PtO5hJ0NtHRoKQcWfarQ-128" value="" style="edgeStyle=orthogonalEdgeStyle;rounded=0;orthogonalLoop=1;jettySize=auto;html=1;" edge="1" parent="dNxyNK7c78bLwvsdeMH5-22" source="PtO5hJ0NtHRoKQcWfarQ-64" target="PtO5hJ0NtHRoKQcWfarQ-65">
          <mxGeometry relative="1" as="geometry" />
        </mxCell>
        <mxCell id="PtO5hJ0NtHRoKQcWfarQ-64" value="Spring Boot&lt;br&gt;(Business Logic, Rest Controllers, cahcing, BackGround Jobs" style="rounded=0;whiteSpace=wrap;html=1;" vertex="1" parent="dNxyNK7c78bLwvsdeMH5-22">
          <mxGeometry x="50" y="30" width="120" height="60" as="geometry" />
        </mxCell>
        <mxCell id="PtO5hJ0NtHRoKQcWfarQ-66" value="Load Balancer" style="rounded=0;whiteSpace=wrap;html=1;" vertex="1" parent="dNxyNK7c78bLwvsdeMH5-22">
          <mxGeometry x="380" y="30" width="120" height="60" as="geometry" />
        </mxCell>
        <mxCell id="PtO5hJ0NtHRoKQcWfarQ-33" value="Database" style="swimlane;html=1;startSize=20;horizontal=0;" vertex="1" parent="dNxyNK7c78bLwvsdeMH5-19">
          <mxGeometry x="20" y="400" width="870" height="120" as="geometry" />
        </mxCell>
        <mxCell id="PtO5hJ0NtHRoKQcWfarQ-57" value="PostgresSQL (free" style="rounded=0;whiteSpace=wrap;html=1;" vertex="1" parent="PtO5hJ0NtHRoKQcWfarQ-33">
          <mxGeometry x="50" y="40" width="120" height="60" as="geometry" />
        </mxCell>
        <mxCell id="PtO5hJ0NtHRoKQcWfarQ-58" value="User Data" style="rounded=0;whiteSpace=wrap;html=1;" vertex="1" parent="PtO5hJ0NtHRoKQcWfarQ-33">
          <mxGeometry x="240" y="40" width="120" height="60" as="geometry" />
        </mxCell>
        <mxCell id="PtO5hJ0NtHRoKQcWfarQ-59" value="Comments/Images" style="rounded=0;whiteSpace=wrap;html=1;" vertex="1" parent="PtO5hJ0NtHRoKQcWfarQ-33">
          <mxGeometry x="390" y="30" width="120" height="60" as="geometry" />
        </mxCell>
        <mxCell id="PtO5hJ0NtHRoKQcWfarQ-63" value="Backend" style="swimlane;html=1;startSize=20;horizontal=0;" vertex="1" parent="dNxyNK7c78bLwvsdeMH5-19">
          <mxGeometry x="20" y="520" width="870" height="140" as="geometry">
            <mxRectangle x="20" y="120" width="500" height="30" as="alternateBounds" />
          </mxGeometry>
        </mxCell>
        <mxCell id="PtO5hJ0NtHRoKQcWfarQ-35" value="AWS/Heroku/Python Anywhere" style="rounded=0;whiteSpace=wrap;html=1;fontFamily=Helvetica;fontSize=12;fontColor=#000000;align=center;" vertex="1" parent="PtO5hJ0NtHRoKQcWfarQ-63">
          <mxGeometry x="64" y="50" width="160" height="60" as="geometry" />
        </mxCell>
        <mxCell id="PtO5hJ0NtHRoKQcWfarQ-122" value="" style="endArrow=classic;html=1;rounded=0;exitX=0.5;exitY=1;exitDx=0;exitDy=0;" edge="1" parent="dNxyNK7c78bLwvsdeMH5-19" source="PtO5hJ0NtHRoKQcWfarQ-30" target="PtO5hJ0NtHRoKQcWfarQ-64">
          <mxGeometry relative="1" as="geometry">
            <mxPoint x="420" y="180" as="sourcePoint" />
            <mxPoint x="520" y="180" as="targetPoint" />
          </mxGeometry>
        </mxCell>
        <mxCell id="PtO5hJ0NtHRoKQcWfarQ-124" value="&lt;b&gt;API Request&lt;/b&gt;" style="edgeLabel;html=1;align=center;verticalAlign=middle;resizable=0;points=[];" vertex="1" connectable="0" parent="PtO5hJ0NtHRoKQcWfarQ-122">
          <mxGeometry x="0.12" relative="1" as="geometry">
            <mxPoint y="-16" as="offset" />
          </mxGeometry>
        </mxCell>
        <mxCell id="PtO5hJ0NtHRoKQcWfarQ-131" value="" style="endArrow=classic;html=1;rounded=0;exitX=0.5;exitY=1;exitDx=0;exitDy=0;" edge="1" parent="dNxyNK7c78bLwvsdeMH5-19" source="PtO5hJ0NtHRoKQcWfarQ-64" target="PtO5hJ0NtHRoKQcWfarQ-57">
          <mxGeometry relative="1" as="geometry">
            <mxPoint x="350" y="370" as="sourcePoint" />
            <mxPoint x="450" y="370" as="targetPoint" />
          </mxGeometry>
        </mxCell>
        <mxCell id="PtO5hJ0NtHRoKQcWfarQ-133" value="Database Queries" style="edgeLabel;html=1;align=center;verticalAlign=middle;resizable=0;points=[];fontStyle=1" vertex="1" connectable="0" parent="PtO5hJ0NtHRoKQcWfarQ-131">
          <mxGeometry x="0.0286" y="2" relative="1" as="geometry">
            <mxPoint x="-2" y="-6" as="offset" />
          </mxGeometry>
        </mxCell>
        <mxCell id="PtO5hJ0NtHRoKQcWfarQ-1" value="Mobile&amp;nbsp;" style="swimlane;html=1;childLayout=stackLayout;resizeParent=1;resizeParentMax=0;horizontal=0;startSize=20;horizontalStack=0;" vertex="1" parent="1">
          <mxGeometry x="100" y="809" width="450" height="360" as="geometry" />
        </mxCell>
        <mxCell id="PtO5hJ0NtHRoKQcWfarQ-2" value="" style="edgeStyle=orthogonalEdgeStyle;rounded=0;orthogonalLoop=1;jettySize=auto;html=1;dashed=1;endArrow=none;endFill=0;" edge="1" parent="PtO5hJ0NtHRoKQcWfarQ-1" source="PtO5hJ0NtHRoKQcWfarQ-9" target="PtO5hJ0NtHRoKQcWfarQ-15">
          <mxGeometry relative="1" as="geometry" />
        </mxCell>
        <mxCell id="PtO5hJ0NtHRoKQcWfarQ-3" style="edgeStyle=orthogonalEdgeStyle;rounded=0;orthogonalLoop=1;jettySize=auto;html=1;endArrow=classic;endFill=1;" edge="1" parent="PtO5hJ0NtHRoKQcWfarQ-1" source="PtO5hJ0NtHRoKQcWfarQ-16" target="PtO5hJ0NtHRoKQcWfarQ-11">
          <mxGeometry relative="1" as="geometry" />
        </mxCell>
        <mxCell id="PtO5hJ0NtHRoKQcWfarQ-4" style="edgeStyle=orthogonalEdgeStyle;rounded=0;orthogonalLoop=1;jettySize=auto;html=1;endArrow=classic;endFill=1;" edge="1" parent="PtO5hJ0NtHRoKQcWfarQ-1" source="PtO5hJ0NtHRoKQcWfarQ-16" target="PtO5hJ0NtHRoKQcWfarQ-19">
          <mxGeometry relative="1" as="geometry" />
        </mxCell>
        <mxCell id="PtO5hJ0NtHRoKQcWfarQ-5" style="edgeStyle=orthogonalEdgeStyle;rounded=0;orthogonalLoop=1;jettySize=auto;html=1;endArrow=classic;endFill=1;" edge="1" parent="PtO5hJ0NtHRoKQcWfarQ-1" source="PtO5hJ0NtHRoKQcWfarQ-15" target="PtO5hJ0NtHRoKQcWfarQ-20">
          <mxGeometry relative="1" as="geometry">
            <Array as="points">
              <mxPoint x="180" y="340" />
              <mxPoint x="400" y="340" />
            </Array>
          </mxGeometry>
        </mxCell>
        <mxCell id="PtO5hJ0NtHRoKQcWfarQ-6" value="Web&amp;nbsp;" style="swimlane;html=1;startSize=20;horizontal=0;" vertex="1" parent="PtO5hJ0NtHRoKQcWfarQ-1">
          <mxGeometry x="20" width="430" height="120" as="geometry" />
        </mxCell>
        <mxCell id="PtO5hJ0NtHRoKQcWfarQ-7" value="" style="edgeStyle=orthogonalEdgeStyle;rounded=0;orthogonalLoop=1;jettySize=auto;html=1;" edge="1" parent="PtO5hJ0NtHRoKQcWfarQ-6" source="PtO5hJ0NtHRoKQcWfarQ-8" target="PtO5hJ0NtHRoKQcWfarQ-9">
          <mxGeometry relative="1" as="geometry" />
        </mxCell>
        <mxCell id="PtO5hJ0NtHRoKQcWfarQ-8" value="" style="ellipse;whiteSpace=wrap;html=1;" vertex="1" parent="PtO5hJ0NtHRoKQcWfarQ-6">
          <mxGeometry x="40" y="40" width="40" height="40" as="geometry" />
        </mxCell>
        <mxCell id="PtO5hJ0NtHRoKQcWfarQ-9" value="" style="rounded=0;whiteSpace=wrap;html=1;fontFamily=Helvetica;fontSize=12;fontColor=#000000;align=center;" vertex="1" parent="PtO5hJ0NtHRoKQcWfarQ-6">
          <mxGeometry x="120" y="30" width="80" height="60" as="geometry" />
        </mxCell>
        <mxCell id="PtO5hJ0NtHRoKQcWfarQ-10" value="" style="edgeStyle=orthogonalEdgeStyle;rounded=0;orthogonalLoop=1;jettySize=auto;html=1;endArrow=classic;endFill=1;" edge="1" parent="PtO5hJ0NtHRoKQcWfarQ-6" source="PtO5hJ0NtHRoKQcWfarQ-11" target="PtO5hJ0NtHRoKQcWfarQ-12">
          <mxGeometry relative="1" as="geometry" />
        </mxCell>
        <mxCell id="PtO5hJ0NtHRoKQcWfarQ-11" value="" style="rounded=0;whiteSpace=wrap;html=1;fontFamily=Helvetica;fontSize=12;fontColor=#000000;align=center;" vertex="1" parent="PtO5hJ0NtHRoKQcWfarQ-6">
          <mxGeometry x="240" y="30" width="80" height="60" as="geometry" />
        </mxCell>
        <mxCell id="PtO5hJ0NtHRoKQcWfarQ-12" value="" style="ellipse;whiteSpace=wrap;html=1;" vertex="1" parent="PtO5hJ0NtHRoKQcWfarQ-6">
          <mxGeometry x="360" y="40" width="40" height="40" as="geometry" />
        </mxCell>
        <mxCell id="PtO5hJ0NtHRoKQcWfarQ-13" value="Lane 2" style="swimlane;html=1;startSize=20;horizontal=0;" vertex="1" parent="PtO5hJ0NtHRoKQcWfarQ-1">
          <mxGeometry x="20" y="120" width="430" height="120" as="geometry" />
        </mxCell>
        <mxCell id="PtO5hJ0NtHRoKQcWfarQ-14" value="" style="edgeStyle=orthogonalEdgeStyle;rounded=0;orthogonalLoop=1;jettySize=auto;html=1;endArrow=classic;endFill=1;" edge="1" parent="PtO5hJ0NtHRoKQcWfarQ-13" source="PtO5hJ0NtHRoKQcWfarQ-15" target="PtO5hJ0NtHRoKQcWfarQ-16">
          <mxGeometry relative="1" as="geometry" />
        </mxCell>
        <mxCell id="PtO5hJ0NtHRoKQcWfarQ-15" value="" style="rounded=0;whiteSpace=wrap;html=1;fontFamily=Helvetica;fontSize=12;fontColor=#000000;align=center;" vertex="1" parent="PtO5hJ0NtHRoKQcWfarQ-13">
          <mxGeometry x="120" y="30" width="80" height="60" as="geometry" />
        </mxCell>
        <mxCell id="PtO5hJ0NtHRoKQcWfarQ-16" value="" style="rhombus;whiteSpace=wrap;html=1;fontFamily=Helvetica;fontSize=12;fontColor=#000000;align=center;" vertex="1" parent="PtO5hJ0NtHRoKQcWfarQ-13">
          <mxGeometry x="260" y="40" width="40" height="40" as="geometry" />
        </mxCell>
        <mxCell id="PtO5hJ0NtHRoKQcWfarQ-17" value="Lane 3" style="swimlane;html=1;startSize=20;horizontal=0;" vertex="1" parent="PtO5hJ0NtHRoKQcWfarQ-1">
          <mxGeometry x="20" y="240" width="430" height="120" as="geometry" />
        </mxCell>
        <mxCell id="PtO5hJ0NtHRoKQcWfarQ-18" value="" style="edgeStyle=orthogonalEdgeStyle;rounded=0;orthogonalLoop=1;jettySize=auto;html=1;endArrow=classic;endFill=1;" edge="1" parent="PtO5hJ0NtHRoKQcWfarQ-17" source="PtO5hJ0NtHRoKQcWfarQ-19" target="PtO5hJ0NtHRoKQcWfarQ-20">
          <mxGeometry relative="1" as="geometry" />
        </mxCell>
        <mxCell id="PtO5hJ0NtHRoKQcWfarQ-19" value="" style="rounded=0;whiteSpace=wrap;html=1;fontFamily=Helvetica;fontSize=12;fontColor=#000000;align=center;" vertex="1" parent="PtO5hJ0NtHRoKQcWfarQ-17">
          <mxGeometry x="240" y="20" width="80" height="60" as="geometry" />
        </mxCell>
        <mxCell id="PtO5hJ0NtHRoKQcWfarQ-20" value="" style="rhombus;whiteSpace=wrap;html=1;fontFamily=Helvetica;fontSize=12;fontColor=#000000;align=center;" vertex="1" parent="PtO5hJ0NtHRoKQcWfarQ-17">
          <mxGeometry x="360" y="30" width="40" height="40" as="geometry" />
        </mxCell>
        <mxCell id="PtO5hJ0NtHRoKQcWfarQ-67" value="Web" style="swimlane;html=1;childLayout=stackLayout;resizeParent=1;resizeParentMax=0;horizontal=0;startSize=20;horizontalStack=0;" vertex="1" parent="1">
          <mxGeometry x="110" y="680" width="890" height="790" as="geometry" />
        </mxCell>
        <mxCell id="PtO5hJ0NtHRoKQcWfarQ-68" value="User" style="swimlane;html=1;startSize=20;horizontal=0;" vertex="1" parent="PtO5hJ0NtHRoKQcWfarQ-67">
          <mxGeometry x="20" width="870" height="270" as="geometry" />
        </mxCell>
        <mxCell id="PtO5hJ0NtHRoKQcWfarQ-69" value="" style="edgeStyle=orthogonalEdgeStyle;rounded=0;orthogonalLoop=1;jettySize=auto;html=1;" edge="1" parent="PtO5hJ0NtHRoKQcWfarQ-68" source="PtO5hJ0NtHRoKQcWfarQ-71" target="PtO5hJ0NtHRoKQcWfarQ-73">
          <mxGeometry relative="1" as="geometry">
            <mxPoint x="350" y="60" as="targetPoint" />
          </mxGeometry>
        </mxCell>
        <mxCell id="PtO5hJ0NtHRoKQcWfarQ-70" value="" style="edgeStyle=orthogonalEdgeStyle;rounded=0;orthogonalLoop=1;jettySize=auto;html=1;" edge="1" parent="PtO5hJ0NtHRoKQcWfarQ-68" source="PtO5hJ0NtHRoKQcWfarQ-71" target="PtO5hJ0NtHRoKQcWfarQ-79">
          <mxGeometry relative="1" as="geometry" />
        </mxCell>
        <mxCell id="PtO5hJ0NtHRoKQcWfarQ-71" value="Next.Js + Tailwind CSS&amp;nbsp;" style="rounded=0;whiteSpace=wrap;html=1;fontFamily=Helvetica;fontSize=12;fontColor=#000000;align=center;" vertex="1" parent="PtO5hJ0NtHRoKQcWfarQ-68">
          <mxGeometry x="194" y="30" width="80" height="60" as="geometry" />
        </mxCell>
        <mxCell id="PtO5hJ0NtHRoKQcWfarQ-72" value="" style="edgeStyle=orthogonalEdgeStyle;rounded=0;orthogonalLoop=1;jettySize=auto;html=1;" edge="1" parent="PtO5hJ0NtHRoKQcWfarQ-68" source="PtO5hJ0NtHRoKQcWfarQ-73" target="PtO5hJ0NtHRoKQcWfarQ-78">
          <mxGeometry relative="1" as="geometry" />
        </mxCell>
        <mxCell id="PtO5hJ0NtHRoKQcWfarQ-73" value="&lt;p&gt;&lt;font style=&quot;font-size: 9px;&quot;&gt;User Interaction (comments/likes/timeline scrolling)&lt;/font&gt;&lt;/p&gt;" style="whiteSpace=wrap;html=1;aspect=fixed;" vertex="1" parent="PtO5hJ0NtHRoKQcWfarQ-68">
          <mxGeometry x="340" y="10" width="100" height="100" as="geometry" />
        </mxCell>
        <mxCell id="PtO5hJ0NtHRoKQcWfarQ-74" value="User Managment" style="whiteSpace=wrap;html=1;aspect=fixed;" vertex="1" parent="PtO5hJ0NtHRoKQcWfarQ-68">
          <mxGeometry x="50" y="120" width="80" height="80" as="geometry" />
        </mxCell>
        <mxCell id="PtO5hJ0NtHRoKQcWfarQ-75" value="" style="edgeStyle=orthogonalEdgeStyle;rounded=0;orthogonalLoop=1;jettySize=auto;html=1;" edge="1" parent="PtO5hJ0NtHRoKQcWfarQ-68" source="PtO5hJ0NtHRoKQcWfarQ-77" target="PtO5hJ0NtHRoKQcWfarQ-71">
          <mxGeometry relative="1" as="geometry" />
        </mxCell>
        <mxCell id="PtO5hJ0NtHRoKQcWfarQ-76" value="" style="edgeStyle=orthogonalEdgeStyle;rounded=0;orthogonalLoop=1;jettySize=auto;html=1;" edge="1" parent="PtO5hJ0NtHRoKQcWfarQ-68" source="PtO5hJ0NtHRoKQcWfarQ-77" target="PtO5hJ0NtHRoKQcWfarQ-74">
          <mxGeometry relative="1" as="geometry" />
        </mxCell>
        <mxCell id="PtO5hJ0NtHRoKQcWfarQ-77" value="User Authentication" style="whiteSpace=wrap;html=1;aspect=fixed;" vertex="1" parent="PtO5hJ0NtHRoKQcWfarQ-68">
          <mxGeometry x="50" y="20" width="80" height="80" as="geometry" />
        </mxCell>
        <mxCell id="PtO5hJ0NtHRoKQcWfarQ-78" value="REST API" style="rounded=0;whiteSpace=wrap;html=1;fontFamily=Helvetica;fontSize=12;fontColor=#000000;align=center;" vertex="1" parent="PtO5hJ0NtHRoKQcWfarQ-68">
          <mxGeometry x="540" y="160" width="80" height="20" as="geometry" />
        </mxCell>
        <mxCell id="PtO5hJ0NtHRoKQcWfarQ-79" value="React Components" style="rounded=0;whiteSpace=wrap;html=1;fontFamily=Helvetica;fontSize=12;fontColor=#000000;align=center;" vertex="1" parent="PtO5hJ0NtHRoKQcWfarQ-68">
          <mxGeometry x="194" y="130" width="80" height="60" as="geometry" />
        </mxCell>
        <mxCell id="PtO5hJ0NtHRoKQcWfarQ-80" value="Front-End Layer" style="swimlane;html=1;startSize=20;horizontal=0;" vertex="1" parent="PtO5hJ0NtHRoKQcWfarQ-67">
          <mxGeometry x="20" y="270" width="870" height="140" as="geometry">
            <mxRectangle x="20" y="120" width="500" height="30" as="alternateBounds" />
          </mxGeometry>
        </mxCell>
        <mxCell id="PtO5hJ0NtHRoKQcWfarQ-81" value="Business logic/Service layer" style="rounded=0;whiteSpace=wrap;html=1;" vertex="1" parent="PtO5hJ0NtHRoKQcWfarQ-80">
          <mxGeometry x="50" y="40" width="120" height="60" as="geometry" />
        </mxCell>
        <mxCell id="PtO5hJ0NtHRoKQcWfarQ-82" value="emails/notifications" style="rounded=0;whiteSpace=wrap;html=1;" vertex="1" parent="PtO5hJ0NtHRoKQcWfarQ-80">
          <mxGeometry x="214" y="40" width="120" height="60" as="geometry" />
        </mxCell>
        <mxCell id="PtO5hJ0NtHRoKQcWfarQ-83" value="Authentication" style="rounded=0;whiteSpace=wrap;html=1;" vertex="1" parent="PtO5hJ0NtHRoKQcWfarQ-80">
          <mxGeometry x="390" y="40" width="120" height="60" as="geometry" />
        </mxCell>
        <mxCell id="PtO5hJ0NtHRoKQcWfarQ-84" value="Database" style="swimlane;html=1;startSize=20;horizontal=0;" vertex="1" parent="PtO5hJ0NtHRoKQcWfarQ-67">
          <mxGeometry x="20" y="410" width="870" height="120" as="geometry" />
        </mxCell>
        <mxCell id="PtO5hJ0NtHRoKQcWfarQ-85" value="SQLite/MySQL or MongoDB" style="rounded=0;whiteSpace=wrap;html=1;" vertex="1" parent="PtO5hJ0NtHRoKQcWfarQ-84">
          <mxGeometry x="50" y="30" width="120" height="60" as="geometry" />
        </mxCell>
        <mxCell id="PtO5hJ0NtHRoKQcWfarQ-86" value="User Data" style="rounded=0;whiteSpace=wrap;html=1;" vertex="1" parent="PtO5hJ0NtHRoKQcWfarQ-84">
          <mxGeometry x="240" y="30" width="120" height="60" as="geometry" />
        </mxCell>
        <mxCell id="PtO5hJ0NtHRoKQcWfarQ-87" value="Comments/Images" style="rounded=0;whiteSpace=wrap;html=1;" vertex="1" parent="PtO5hJ0NtHRoKQcWfarQ-84">
          <mxGeometry x="390" y="30" width="120" height="60" as="geometry" />
        </mxCell>
        <mxCell id="PtO5hJ0NtHRoKQcWfarQ-88" value="Hosting" style="swimlane;html=1;startSize=20;horizontal=0;" vertex="1" parent="PtO5hJ0NtHRoKQcWfarQ-67">
          <mxGeometry x="20" y="530" width="870" height="120" as="geometry" />
        </mxCell>
        <mxCell id="PtO5hJ0NtHRoKQcWfarQ-89" value="AWS/Heroku/Python Anywhere" style="rounded=0;whiteSpace=wrap;html=1;fontFamily=Helvetica;fontSize=12;fontColor=#000000;align=center;" vertex="1" parent="PtO5hJ0NtHRoKQcWfarQ-88">
          <mxGeometry x="34" y="30" width="160" height="60" as="geometry" />
        </mxCell>
        <mxCell id="PtO5hJ0NtHRoKQcWfarQ-90" value="" style="endArrow=classic;html=1;rounded=0;entryX=0.5;entryY=0;entryDx=0;entryDy=0;exitX=0.5;exitY=1;exitDx=0;exitDy=0;" edge="1" parent="PtO5hJ0NtHRoKQcWfarQ-67" source="PtO5hJ0NtHRoKQcWfarQ-78" target="PtO5hJ0NtHRoKQcWfarQ-81">
          <mxGeometry width="50" height="50" relative="1" as="geometry">
            <mxPoint x="600" y="210" as="sourcePoint" />
            <mxPoint x="530" y="170" as="targetPoint" />
            <Array as="points">
              <mxPoint x="600" y="210" />
              <mxPoint x="340" y="210" />
              <mxPoint x="130" y="210" />
            </Array>
          </mxGeometry>
        </mxCell>
        <mxCell id="PtO5hJ0NtHRoKQcWfarQ-91" value="Backend" style="swimlane;html=1;startSize=20;horizontal=0;" vertex="1" parent="PtO5hJ0NtHRoKQcWfarQ-67">
          <mxGeometry x="20" y="650" width="870" height="140" as="geometry">
            <mxRectangle x="20" y="120" width="500" height="30" as="alternateBounds" />
          </mxGeometry>
        </mxCell>
        <mxCell id="PtO5hJ0NtHRoKQcWfarQ-92" value="Business logic/Service layer" style="rounded=0;whiteSpace=wrap;html=1;" vertex="1" parent="PtO5hJ0NtHRoKQcWfarQ-91">
          <mxGeometry x="50" y="40" width="120" height="60" as="geometry" />
        </mxCell>
        <mxCell id="PtO5hJ0NtHRoKQcWfarQ-93" value="emails/notifications" style="rounded=0;whiteSpace=wrap;html=1;" vertex="1" parent="PtO5hJ0NtHRoKQcWfarQ-91">
          <mxGeometry x="214" y="40" width="120" height="60" as="geometry" />
        </mxCell>
        <mxCell id="PtO5hJ0NtHRoKQcWfarQ-94" value="Authentication" style="rounded=0;whiteSpace=wrap;html=1;" vertex="1" parent="PtO5hJ0NtHRoKQcWfarQ-91">
          <mxGeometry x="390" y="40" width="120" height="60" as="geometry" />
        </mxCell>
        <mxCell id="PtO5hJ0NtHRoKQcWfarQ-95" value="Mobile&amp;nbsp;" style="swimlane;html=1;childLayout=stackLayout;resizeParent=1;resizeParentMax=0;horizontal=0;startSize=20;horizontalStack=0;" vertex="1" parent="1">
          <mxGeometry x="140" y="1699" width="450" height="360" as="geometry" />
        </mxCell>
        <mxCell id="PtO5hJ0NtHRoKQcWfarQ-96" value="" style="edgeStyle=orthogonalEdgeStyle;rounded=0;orthogonalLoop=1;jettySize=auto;html=1;dashed=1;endArrow=none;endFill=0;" edge="1" parent="PtO5hJ0NtHRoKQcWfarQ-95" source="PtO5hJ0NtHRoKQcWfarQ-103" target="PtO5hJ0NtHRoKQcWfarQ-109">
          <mxGeometry relative="1" as="geometry" />
        </mxCell>
        <mxCell id="PtO5hJ0NtHRoKQcWfarQ-97" style="edgeStyle=orthogonalEdgeStyle;rounded=0;orthogonalLoop=1;jettySize=auto;html=1;endArrow=classic;endFill=1;" edge="1" parent="PtO5hJ0NtHRoKQcWfarQ-95" source="PtO5hJ0NtHRoKQcWfarQ-110" target="PtO5hJ0NtHRoKQcWfarQ-105">
          <mxGeometry relative="1" as="geometry" />
        </mxCell>
        <mxCell id="PtO5hJ0NtHRoKQcWfarQ-98" style="edgeStyle=orthogonalEdgeStyle;rounded=0;orthogonalLoop=1;jettySize=auto;html=1;endArrow=classic;endFill=1;" edge="1" parent="PtO5hJ0NtHRoKQcWfarQ-95" source="PtO5hJ0NtHRoKQcWfarQ-110" target="PtO5hJ0NtHRoKQcWfarQ-113">
          <mxGeometry relative="1" as="geometry" />
        </mxCell>
        <mxCell id="PtO5hJ0NtHRoKQcWfarQ-99" style="edgeStyle=orthogonalEdgeStyle;rounded=0;orthogonalLoop=1;jettySize=auto;html=1;endArrow=classic;endFill=1;" edge="1" parent="PtO5hJ0NtHRoKQcWfarQ-95" source="PtO5hJ0NtHRoKQcWfarQ-109" target="PtO5hJ0NtHRoKQcWfarQ-114">
          <mxGeometry relative="1" as="geometry">
            <Array as="points">
              <mxPoint x="180" y="340" />
              <mxPoint x="400" y="340" />
            </Array>
          </mxGeometry>
        </mxCell>
        <mxCell id="PtO5hJ0NtHRoKQcWfarQ-100" value="Web&amp;nbsp;" style="swimlane;html=1;startSize=20;horizontal=0;" vertex="1" parent="PtO5hJ0NtHRoKQcWfarQ-95">
          <mxGeometry x="20" width="430" height="120" as="geometry" />
        </mxCell>
        <mxCell id="PtO5hJ0NtHRoKQcWfarQ-101" value="" style="edgeStyle=orthogonalEdgeStyle;rounded=0;orthogonalLoop=1;jettySize=auto;html=1;" edge="1" parent="PtO5hJ0NtHRoKQcWfarQ-100" source="PtO5hJ0NtHRoKQcWfarQ-102" target="PtO5hJ0NtHRoKQcWfarQ-103">
          <mxGeometry relative="1" as="geometry" />
        </mxCell>
        <mxCell id="PtO5hJ0NtHRoKQcWfarQ-102" value="" style="ellipse;whiteSpace=wrap;html=1;" vertex="1" parent="PtO5hJ0NtHRoKQcWfarQ-100">
          <mxGeometry x="40" y="40" width="40" height="40" as="geometry" />
        </mxCell>
        <mxCell id="PtO5hJ0NtHRoKQcWfarQ-103" value="" style="rounded=0;whiteSpace=wrap;html=1;fontFamily=Helvetica;fontSize=12;fontColor=#000000;align=center;" vertex="1" parent="PtO5hJ0NtHRoKQcWfarQ-100">
          <mxGeometry x="120" y="30" width="80" height="60" as="geometry" />
        </mxCell>
        <mxCell id="PtO5hJ0NtHRoKQcWfarQ-104" value="" style="edgeStyle=orthogonalEdgeStyle;rounded=0;orthogonalLoop=1;jettySize=auto;html=1;endArrow=classic;endFill=1;" edge="1" parent="PtO5hJ0NtHRoKQcWfarQ-100" source="PtO5hJ0NtHRoKQcWfarQ-105" target="PtO5hJ0NtHRoKQcWfarQ-106">
          <mxGeometry relative="1" as="geometry" />
        </mxCell>
        <mxCell id="PtO5hJ0NtHRoKQcWfarQ-105" value="" style="rounded=0;whiteSpace=wrap;html=1;fontFamily=Helvetica;fontSize=12;fontColor=#000000;align=center;" vertex="1" parent="PtO5hJ0NtHRoKQcWfarQ-100">
          <mxGeometry x="240" y="30" width="80" height="60" as="geometry" />
        </mxCell>
        <mxCell id="PtO5hJ0NtHRoKQcWfarQ-106" value="" style="ellipse;whiteSpace=wrap;html=1;" vertex="1" parent="PtO5hJ0NtHRoKQcWfarQ-100">
          <mxGeometry x="360" y="40" width="40" height="40" as="geometry" />
        </mxCell>
        <mxCell id="PtO5hJ0NtHRoKQcWfarQ-107" value="Lane 2" style="swimlane;html=1;startSize=20;horizontal=0;" vertex="1" parent="PtO5hJ0NtHRoKQcWfarQ-95">
          <mxGeometry x="20" y="120" width="430" height="120" as="geometry" />
        </mxCell>
        <mxCell id="PtO5hJ0NtHRoKQcWfarQ-108" value="" style="edgeStyle=orthogonalEdgeStyle;rounded=0;orthogonalLoop=1;jettySize=auto;html=1;endArrow=classic;endFill=1;" edge="1" parent="PtO5hJ0NtHRoKQcWfarQ-107" source="PtO5hJ0NtHRoKQcWfarQ-109" target="PtO5hJ0NtHRoKQcWfarQ-110">
          <mxGeometry relative="1" as="geometry" />
        </mxCell>
        <mxCell id="PtO5hJ0NtHRoKQcWfarQ-109" value="" style="rounded=0;whiteSpace=wrap;html=1;fontFamily=Helvetica;fontSize=12;fontColor=#000000;align=center;" vertex="1" parent="PtO5hJ0NtHRoKQcWfarQ-107">
          <mxGeometry x="120" y="30" width="80" height="60" as="geometry" />
        </mxCell>
        <mxCell id="PtO5hJ0NtHRoKQcWfarQ-110" value="" style="rhombus;whiteSpace=wrap;html=1;fontFamily=Helvetica;fontSize=12;fontColor=#000000;align=center;" vertex="1" parent="PtO5hJ0NtHRoKQcWfarQ-107">
          <mxGeometry x="260" y="40" width="40" height="40" as="geometry" />
        </mxCell>
        <mxCell id="PtO5hJ0NtHRoKQcWfarQ-111" value="Lane 3" style="swimlane;html=1;startSize=20;horizontal=0;" vertex="1" parent="PtO5hJ0NtHRoKQcWfarQ-95">
          <mxGeometry x="20" y="240" width="430" height="120" as="geometry" />
        </mxCell>
        <mxCell id="PtO5hJ0NtHRoKQcWfarQ-112" value="" style="edgeStyle=orthogonalEdgeStyle;rounded=0;orthogonalLoop=1;jettySize=auto;html=1;endArrow=classic;endFill=1;" edge="1" parent="PtO5hJ0NtHRoKQcWfarQ-111" source="PtO5hJ0NtHRoKQcWfarQ-113" target="PtO5hJ0NtHRoKQcWfarQ-114">
          <mxGeometry relative="1" as="geometry" />
        </mxCell>
        <mxCell id="PtO5hJ0NtHRoKQcWfarQ-113" value="" style="rounded=0;whiteSpace=wrap;html=1;fontFamily=Helvetica;fontSize=12;fontColor=#000000;align=center;" vertex="1" parent="PtO5hJ0NtHRoKQcWfarQ-111">
          <mxGeometry x="240" y="20" width="80" height="60" as="geometry" />
        </mxCell>
        <mxCell id="PtO5hJ0NtHRoKQcWfarQ-114" value="" style="rhombus;whiteSpace=wrap;html=1;fontFamily=Helvetica;fontSize=12;fontColor=#000000;align=center;" vertex="1" parent="PtO5hJ0NtHRoKQcWfarQ-111">
          <mxGeometry x="360" y="30" width="40" height="40" as="geometry" />
        </mxCell>
        <mxCell id="PtO5hJ0NtHRoKQcWfarQ-116" value="" style="edgeStyle=orthogonalEdgeStyle;rounded=0;orthogonalLoop=1;jettySize=auto;html=1;" edge="1" parent="1" source="PtO5hJ0NtHRoKQcWfarQ-32">
          <mxGeometry relative="1" as="geometry">
            <mxPoint x="350" y="-150" as="targetPoint" />
          </mxGeometry>
        </mxCell>
        <mxCell id="PtO5hJ0NtHRoKQcWfarQ-118" value="" style="edgeStyle=orthogonalEdgeStyle;rounded=0;orthogonalLoop=1;jettySize=auto;html=1;" edge="1" parent="1" source="dNxyNK7c78bLwvsdeMH5-24">
          <mxGeometry relative="1" as="geometry">
            <mxPoint x="324" y="-40" as="targetPoint" />
          </mxGeometry>
        </mxCell>
      </root>
    </mxGraphModel>
  </diagram>
</mxfile>
